Coordinates
nRows=17
nColumns=24

# SIMM Motion File Header:
name Coordinates
datacolumns 24
datarows 17
otherdata 1
range 0.57933000000000001000 0.59533000000000003000

Units are S.I. units (second, meters, Newtons, ...)
Angles are in degrees.

endheader
time	pelvis_tx	pelvis_ty	pelvis_tz	pelvis_tilt	pelvis_list	pelvis_rotation	hip_flexion_r	hip_adduction_r	hip_rotation_r	knee_angle_r	ankle_angle_r	subtalar_angle_r	mtp_angle_r	hip_flexion_l	hip_adduction_l	hip_rotation_l	knee_angle_l	ankle_angle_l	subtalar_angle_l	mtp_angle_l	lumbar_extension	lumbar_bending	lumbar_rotation
      0.57933000000000001000	     -1.35500374886641550000	      0.68850172761978834000	      0.27165495226196956000	     10.67498275823674800000	      1.31792366852070360000	      0.41757549680808165000	     -8.41812904660056380000	      2.97470381524163630000	    -11.60313615797007000000	    -13.33338827941558900000	     12.23008422806886700000	     -0.00000000000006050954	      0.00000000000013805474	     14.13922650238729900000	     -1.07211757038539960000	     -2.59531528854012580000	    -24.85090074838378300000	     -0.83222637206052252000	     -0.00000000000000297776	      0.00000000000000107477	    -30.74384691531145800000	      2.36521714129863760000	      5.16629548614593670000
      0.58033000000000001000	     -1.35452111511641180000	      0.68843985721646495000	      0.27168099408965019000	     10.67625018702658900000	      1.31516371759388860000	      0.40473123406058009000	     -8.47139623564878440000	      2.97438820836573830000	    -11.60687936930045400000	    -13.31918397156430700000	     12.26165902439887200000	     -0.00000000000006134057	      0.00000000000013884046	     14.15493974177437800000	     -1.05677998155630680000	     -2.62947431416763420000	    -24.60344775962648700000	     -0.85028387323997301000	     -0.00000000000000297373	      0.00000000000000108665	    -30.74734428301818000000	      2.35685353118507110000	      5.17478959351574910000
      0.58133000000000001000	     -1.35403778353909020000	      0.68837728167210055000	      0.27170695099295344000	     10.67728043638119000000	      1.31233605493074280000	      0.39202463573979840000	     -8.52430434357880710000	      2.97410643366099680000	    -11.61091603929541400000	    -13.30536145544354600000	     12.29325954424233600000	     -0.00000000000006220220	      0.00000000000013967273	     14.17075288399022900000	     -1.04151934976759520000	     -2.66471060120720750000	    -24.35627109935878200000	     -0.86828839566046956000	     -0.00000000000000296811	      0.00000000000000109984	    -30.75058028346062500000	      2.34850004683102800000	      5.18323750124654300000
      0.58233000000000001000	     -1.35355374634007370000	      0.68831400472071702000	      0.27173282537354149000	     10.67807420484722900000	      1.30944011946862690000	      0.37945824826456337000	     -8.57685605660600810000	      2.97385966417297000000	    -11.61524938972893000000	    -13.29191866832955200000	     12.32488518993868500000	     -0.00000000000006304917	      0.00000000000014049329	     14.18666562244213300000	     -1.02633189039450850000	     -2.70100172628728210000	    -24.10938507379349000000	     -0.88623397594644870000	     -0.00000000000000296172	      0.00000000000000111172	    -30.75355570936010400000	      2.34015579023305560000	      5.19164106553876440000
      0.58333000000000002000	     -1.35306899562513230000	      0.68825003022155906000	      0.27175861946519331000	     10.67863242813333700000	      1.30647537310848240000	      0.36703458652018733000	     -8.62905440885866070000	      2.97364907001663250000	    -11.61988220917044700000	    -13.27885335333523100000	     12.35653553256612500000	     -0.00000000000006390647	      0.00000000000014129735	     14.20267727592501200000	     -1.01121375886980580000	     -2.73832466945660970000	    -23.86280393887868100000	     -0.90411458701284320000	     -0.00000000000000295797	      0.00000000000000112458	    -30.75627155913754500000	      2.33181990810047870000	      5.20000199357666220000
      0.58433000000000002000	     -1.35258352340464190000	      0.68818536215890480000	      0.27178433533649643000	     10.67895627928244200000	      1.30344130235612980000	      0.35475612480190377000	     -8.68090277736137490000	      2.97347581535497340000	    -11.62481684638850300000	    -13.26616306729691200000	     12.38821032017173200000	     -0.00000000000006476845	      0.00000000000014212695	     14.21878678903679100000	     -0.99616105616183692000	     -2.77665583933716500000	    -23.61654189619678200000	     -0.92192414607706075000	     -0.00000000000000295521	      0.00000000000000113753	    -30.75872903556791400000	      2.32349158981478650000	      5.20832184300507260000
      0.58533000000000002000	     -1.35209732160241570000	      0.68812000464284229000	      0.27180997489332775000	     10.67904716766591900000	      1.30033741992667240000	      0.34262528776947493000	     -8.73240487519360540000	      2.97334105514578220000	    -11.63005520552372800000	    -13.25384518959691800000	     12.41990948143308800000	     -0.00000000000006560562	      0.00000000000014293666	     14.23499273396109600000	     -0.98116983427449411000	     -2.81597109980848300000	    -23.37061308867355400000	     -0.93965652534606758000	     -0.00000000000000295071	      0.00000000000000115039	    -30.76092954560451500000	      2.31517006528747600000	      5.21660202539470500000
      0.58633000000000002000	     -1.35161038207020550000	      0.68805396191119994000	      0.27183553988090919000	     10.67890673641746500000	      1.29716326633023550000	      0.33064444139852156000	     -8.78356474224535690000	      2.97324593147031320000	    -11.63559874705941300000	    -13.24189693223215200000	     12.45163312248708600000	     -0.00000000000006642103	      0.00000000000014375840	     14.25129331405849000000	     -0.96623610175208685000	     -2.85624579870894690000	    -23.12503159604429800000	     -0.95730556618590890000	     -0.00000000000000294517	      0.00000000000000116209	    -30.76287470169640100000	      2.30685460265091180000	      5.22484381489974940000
      0.58733000000000002000	     -1.35112269660377060000	      0.68798723833157849000	      0.27186103188580740000	     10.67853685935757300000	      1.29391841156192620000	      0.31881588390003446000	     -8.83438673527236600000	      2.97319156970403320000	    -11.64144848887359600000	    -13.23031535005015900000	     12.48338152761865600000	     -0.00000000000006724169	      0.00000000000014459746	     14.26768636804197100000	     -0.95135582907405825000	     -2.89745479715584060000	    -22.87981143025859200000	     -0.97486509427165902000	     -0.00000000000000293966	      0.00000000000000117544	    -30.76456632344162000000	      2.29854450577294540000	      5.23304835835498940000
      0.58833000000000002000	     -1.35063425695905680000	      0.68791983840336879000	      0.27188645233803016000	     10.67793963789257300000	      1.29060245678891030000	      0.30714183664357236000	     -8.88487551791407530000	      2.97317907471804110000	    -11.64760500609974300000	    -13.21909735098523300000	     12.51515516056710800000	     -0.00000000000006804552	      0.00000000000014542707	     14.28416937418256300000	     -0.93652495405010738000	     -2.93957249889914430000	    -22.63496653088009600000	     -0.99232893480284401000	     -0.00000000000000293375	      0.00000000000000119007	    -30.76600643927167800000	      2.29023911177192520000	      5.24121668546692200000
      0.58933000000000002000	     -1.35014505486837510000	      0.68785176675973525000	      0.27191180251324604000	     10.67711739791347400000	      1.28721503603728870000	      0.29562443508057451000	     -8.93503605071123810000	      2.97320952707902730000	    -11.65406843097868800000	    -13.20823970629443700000	     12.54695466583802100000	     -0.00000000000006882565	      0.00000000000014622039	     14.30073945451511900000	     -0.92173938721355886000	     -2.98257287967532080000	    -22.39051076048646400000	     -1.00969092771945610000	     -0.00000000000000292773	      0.00000000000000120467	    -30.76719728813614200000	      2.28193778853083410000	      5.24934971900507640000
      0.59033000000000002000	     -1.34965508205658940000	      0.68778302816956383000	      0.27193708353513030000	     10.67607268669474900000	      1.28375581787877820000	      0.28426571966776248000	     -8.98487358112342170000	      2.97328397924770060000	    -11.66083845271048200000	    -13.19773906079344500000	     12.57878087001569500000	     -0.00000000000006960433	      0.00000000000014696854	     14.31739337904418000000	     -0.90699501721307951000	     -3.02642951656081530000	    -22.14645790006929000000	     -1.02694494291802330000	     -0.00000000000000292244	      0.00000000000000121827	    -30.76814132118714800000	      2.27363993221060890000	      5.25744828499290500000
      0.59133000000000002000	     -1.34916433025730600000	      0.68771362753937570000	      0.27196229637783836000	     10.67480826979308600000	      1.28022450711720290000	      0.27306762679061825000	     -9.03439363354646830000	      2.97340345177574860000	    -11.66791431730629500000	    -13.18759194309222600000	     12.61063478307615800000	     -0.00000000000007038311	      0.00000000000014769475	     14.33412756994983700000	     -0.89228771620280201000	     -3.07111561732521210000	    -21.90282164443419400000	     -1.04408489546771840000	     -0.00000000000000291577	      0.00000000000000123152	    -30.76884120346383300000	      2.26534496476268820000	      5.26551312289822700000
      0.59233000000000002000	     -1.34867279122899600000	      0.68764356991517395000	      0.27198744186881230000	     10.67332712789890100000	      1.27662084637471400000	      0.26203197972840797000	     -9.08360199919362190000	      2.97356892967648270000	    -11.67529482761195100000	    -13.17779477627952300000	     12.64251760176780500000	     -0.00000000000007119819	      0.00000000000014846406	     14.35093810591358500000	     -0.87761334534091295000	     -3.11660404978806090000	    -21.65961559766454400000	     -1.06110476090153340000	     -0.00000000000000290769	      0.00000000000000124295	    -30.76929981546708600000	      2.25705233147307820000	      5.27354489571842940000
      0.59333000000000002000	     -1.34818045677010150000	      0.68757286048342137000	      0.27201252069276760000	     10.67163245334059400000	      1.27294461732670760000	      0.25116048006066655000	     -9.13250472517181320000	      2.97378135934457970000	    -11.68297834491291300000	    -13.16834389088400700000	     12.67443071743374000000	     -0.00000000000007204255	      0.00000000000014923133	     14.36782072732688300000	     -0.86296776056474311000	     -3.16286737109178520000	    -21.41685326899125700000	     -1.07799859116426040000	     -0.00000000000000289799	      0.00000000000000125453	    -30.76952025383985800000	      2.24876149844952210000	      5.28154419891620200000
      0.59433000000000002000	     -1.34768731873059560000	      0.68750150456709724000	      0.27203753339797282000	     10.66972764522290400000	      1.26919564274163910000	      0.24045469996915911000	     -9.18110810261880060000	      2.97404164483249470000	    -11.69096279296633500000	    -13.15923553489523500000	     12.70637571251553400000	     -0.00000000000007289176	      0.00000000000014999971	     14.38477084406101600000	     -0.84834681721122118000	     -3.20987785706343990000	    -21.17454806952803600000	     -1.09476053197367930000	     -0.00000000000000288712	      0.00000000000000126642	    -30.76950582918947700000	      2.24047194836041010000	      5.28951156605302590000
      0.59533000000000003000	     -1.34719336902139640000	      0.68742950761842192000	      0.27206248040386738000	     10.66761630390786100000	      1.26537378891693610000	      0.22991607490052982000	     -9.22941865442285620000	      2.97435064385996740000	    -11.69924566296534800000	    -13.15046588202705100000	     12.73835435261775500000	     -0.00000000000007371908	      0.00000000000015079495	     14.40178354444909000000	     -0.83374637410246544000	     -3.25760753167092430000	    -20.93271330939793600000	     -1.11138484078335090000	     -0.00000000000000287744	      0.00000000000000127750	    -30.76926006257258100000	      2.23218317533040710000	      5.29744747297906300000
